<svg width="180" height="180" viewBox="0 0 180 180" fill="none" xmlns="http://www.w3.org/2000/svg">
<path d="M30 37.5001C30.0001 36.5028 30.1992 35.5154 30.5855 34.596C30.9719 33.6765 31.5377 32.8433 32.25 32.1451C40.4238 24.1324 51.3439 19.5356 62.7874 19.2904C74.231 19.0451 85.3379 23.1699 93.8475 30.8251L96.48 33.2851C101.951 38.0783 108.977 40.7208 116.25 40.7208C123.523 40.7208 130.549 38.0783 136.02 33.2851L137.888 31.5826C142.463 27.9601 149.34 30.8551 149.963 36.6526L150 37.5001V105C150 105.997 149.801 106.985 149.414 107.904C149.028 108.824 148.462 109.657 147.75 110.355C139.576 118.368 128.656 122.965 117.213 123.21C105.769 123.455 94.6621 119.33 86.1525 111.675L83.52 109.215C78.2215 104.573 71.4583 101.943 64.4154 101.787C57.3725 101.63 50.4993 103.957 45 108.36V157.5C44.9979 159.412 44.2659 161.25 42.9536 162.64C41.6414 164.03 39.8479 164.867 37.9395 164.979C36.0312 165.091 34.1522 164.47 32.6863 163.243C31.2204 162.016 30.2783 160.276 30.0525 158.378L30 157.5V37.5001Z" fill="#DCEBEB"/>
</svg>
