<svg width="180" height="180" viewBox="0 0 180 180" fill="none" xmlns="http://www.w3.org/2000/svg">
<g clip-path="url(#clip0_5129_3927)">
<path fill-rule="evenodd" clip-rule="evenodd" d="M90.0012 16.0713C83.8806 16.0713 77.82 17.2769 72.1654 19.6191C66.5107 21.9613 61.3728 25.3944 57.0449 29.7222C52.7171 34.0501 49.284 39.1881 46.9418 44.8427C44.5995 50.4973 43.394 56.5579 43.394 62.6785C43.394 68.799 44.5995 74.8596 46.9418 80.5143C49.284 86.1689 52.7171 91.3068 57.0449 95.6347C61.3728 99.9626 66.5107 103.396 72.1654 105.738C77.82 108.08 83.8806 109.286 90.0012 109.286C102.362 109.286 114.217 104.375 122.957 95.6347C131.698 86.8942 136.608 75.0395 136.608 62.6785C136.608 50.3175 131.698 38.4628 122.957 29.7222C114.217 20.9817 102.362 16.0713 90.0012 16.0713ZM152.68 62.6785C152.678 77.9098 147.131 92.6195 137.075 104.059C127.019 115.499 113.142 122.887 98.0369 124.843V141.428H115.715C117.847 141.428 119.891 142.275 121.398 143.782C122.905 145.289 123.751 147.333 123.751 149.464C123.751 151.595 122.905 153.639 121.398 155.146C119.891 156.653 117.847 157.5 115.715 157.5H98.0369V171.964C98.0369 174.095 97.1903 176.139 95.6833 177.646C94.1763 179.153 92.1324 180 90.0012 180C87.87 180 85.826 179.153 84.3191 177.646C82.8121 176.139 81.9654 174.095 81.9654 171.964V157.5H64.2869C62.1557 157.5 60.1118 156.653 58.6048 155.146C57.0978 153.639 56.2512 151.595 56.2512 149.464C56.2512 147.333 57.0978 145.289 58.6048 143.782C60.1118 142.275 62.1557 141.428 64.2869 141.428H81.9654V124.843C70.0073 123.3 58.7477 118.341 49.5364 110.561C40.325 102.781 33.5525 92.5097 30.0307 80.9782C26.509 69.4466 26.3872 57.1442 29.6802 45.5452C32.9732 33.9463 39.5411 23.543 48.5967 15.5823C57.6524 7.62153 68.8116 2.44105 80.7369 0.661751C92.6622 -1.11755 104.848 0.57982 115.833 5.55042C126.818 10.521 136.136 18.554 142.672 28.6865C149.207 38.819 152.682 50.6212 152.68 62.6785Z" fill="#EBDDF5"/>
</g>
<defs>
<clipPath id="clip0_5129_3927">
<rect width="180" height="180" fill="white"/>
</clipPath>
</defs>
</svg>
