<svg width="180" height="180" viewBox="0 0 180 180" fill="none" xmlns="http://www.w3.org/2000/svg">
<path fill-rule="evenodd" clip-rule="evenodd" d="M45.9887 0C64.9793 0 83.9755 0 102.966 0C143.921 0 165.112 1.37007 176.662 31.5441C181.923 45.2895 179.391 69.0825 179.391 87.0865C179.277 104.228 179.164 121.374 179.051 138.515C174.713 163.112 157.698 179.997 128.896 180C129.01 179.772 129.123 179.543 129.237 179.315C133.281 177.917 135.686 174.525 137.767 171.086C146.711 156.302 135.248 141.927 128.896 132.343C128.896 132.229 128.896 132.115 128.896 132C143.354 130.794 156.731 120.653 163.697 111.428C171.537 101.048 167.605 94.1973 155.167 91.8868C149.053 69.5173 116.014 67.3932 91.3659 73.3721C91.3659 73.2582 91.3659 73.1427 91.3659 73.0288C92.7697 70.337 94.9126 68.3302 97.8484 67.2C97.8484 67.0861 97.8484 66.9723 97.8484 66.8584C93.7115 66.4874 91.01 67.074 87.9541 68.2283C87.9541 68.1144 87.9541 68.0006 87.9541 67.8867C90.7505 62.7222 94.5371 62.2063 99.2132 58.971C88.1784 58.2031 81.1322 60.1962 76.6951 66.8584C75.2168 70.2852 73.7381 73.7155 72.2597 77.1441C67.0269 70.3594 63.5139 62.9725 55.2007 59.3144C36.8571 51.2425 21.4235 65.031 16.6469 77.8291C13.6182 85.9442 13.5299 99.9278 15.6234 109.03C22.2932 138.022 35.0729 147.372 65.436 136.115C61.1756 142.429 56.3652 148.568 53.8359 156.687C53.0399 161.144 52.2435 165.601 51.4477 170.058C-4.51005 173.241 0.611487 138.503 0.611487 86.058C0.611315 68.2421 -1.92704 44.337 3.34096 30.8573C8.87922 16.6857 20.0004 6.31357 35.0708 1.71508C38.7097 1.14394 42.3497 0.571144 45.9887 0Z" fill="#D9E1F3"/>
<path fill-rule="evenodd" clip-rule="evenodd" d="M108.766 84.6862C119.734 84.4135 120.977 98.9682 111.837 101.142C101.283 103.655 98.2306 89.6487 108.766 84.6862Z" fill="#D9E1F3"/>
</svg>
