<svg xmlns="http://www.w3.org/2000/svg" width="150" height="150" fill="none" overflow="visible"><path d="M 75 0 C 77.815 0 80.59 0.152 83.325 0.457 C 84.304 0.566 85.252 0.866 86.115 1.341 C 86.978 1.815 87.739 2.456 88.355 3.224 C 88.97 3.993 89.429 4.876 89.703 5.822 C 89.978 6.768 90.063 7.759 89.955 8.738 C 89.847 9.716 89.547 10.665 89.072 11.528 C 88.597 12.391 87.957 13.152 87.188 13.767 C 86.419 14.383 85.537 14.841 84.591 15.116 C 83.645 15.39 82.654 15.476 81.675 15.367 C 69.315 13.985 56.831 16.477 45.95 22.499 C 35.069 28.522 26.328 37.777 20.936 48.984 C 15.544 60.191 13.768 72.797 15.854 85.058 C 17.94 97.318 23.784 108.628 32.578 117.422 C 41.372 126.216 52.682 132.06 64.942 134.146 C 77.203 136.231 89.809 134.456 101.016 129.064 C 112.223 123.672 121.478 114.931 127.501 104.05 C 133.523 93.169 136.015 80.685 134.633 68.325 C 134.524 67.346 134.61 66.355 134.884 65.409 C 135.159 64.463 135.617 63.581 136.233 62.812 C 137.476 61.259 139.285 60.264 141.262 60.045 C 143.24 59.826 145.223 60.402 146.776 61.645 C 147.544 62.261 148.185 63.022 148.659 63.885 C 149.134 64.748 149.434 65.696 149.542 66.675 C 149.842 69.41 149.995 72.185 150 75 C 150 116.423 116.423 150 75 150 C 33.578 150 0 116.423 0 75 C 0 33.578 33.578 0 75 0 Z M 74.76 44.077 C 75.254 46.003 74.964 48.046 73.953 49.757 C 72.942 51.469 71.292 52.709 69.368 53.205 C 64.079 54.59 59.475 57.852 56.415 62.383 C 53.355 66.913 52.048 72.402 52.738 77.825 C 53.427 83.248 56.067 88.236 60.163 91.856 C 64.259 95.476 69.533 97.482 75 97.5 C 79.99 97.502 84.839 95.845 88.784 92.791 C 92.73 89.736 95.548 85.456 96.795 80.625 C 97.327 78.738 98.576 77.134 100.276 76.156 C 101.976 75.179 103.991 74.906 105.89 75.397 C 107.788 75.887 109.419 77.101 110.433 78.779 C 111.447 80.458 111.764 82.466 111.315 84.375 C 109.014 93.194 103.581 100.875 96.031 105.981 C 88.481 111.087 79.33 113.27 70.288 112.121 C 61.246 110.973 52.932 106.572 46.898 99.74 C 40.864 92.909 37.523 84.115 37.5 75 C 37.499 66.685 40.261 58.606 45.352 52.032 C 50.443 45.459 57.574 40.764 65.625 38.685 C 66.579 38.439 67.572 38.384 68.547 38.522 C 69.523 38.659 70.461 38.988 71.31 39.489 C 72.158 39.99 72.899 40.653 73.491 41.44 C 74.083 42.227 74.514 43.123 74.76 44.077 Z M 123.78 0.952 C 125.149 1.52 126.319 2.48 127.143 3.713 C 127.966 4.945 128.406 6.393 128.408 7.875 L 128.408 21.6 L 142.125 21.6 C 143.608 21.6 145.058 22.04 146.291 22.864 C 147.524 23.689 148.485 24.86 149.053 26.23 C 149.62 27.6 149.769 29.108 149.479 30.563 C 149.19 32.017 148.476 33.354 147.427 34.402 L 120.9 60.9 C 119.494 62.307 117.586 63.097 115.598 63.097 L 97.5 63.097 L 83.79 76.815 C 82.383 78.222 80.474 79.013 78.484 79.013 C 76.493 79.013 74.585 78.222 73.177 76.815 C 71.77 75.408 70.98 73.499 70.98 71.509 C 70.98 69.518 71.77 67.61 73.177 66.202 L 86.895 52.5 L 86.895 34.395 C 86.895 32.406 87.686 30.499 89.092 29.092 L 115.605 2.572 C 116.654 1.523 117.99 0.808 119.446 0.518 C 120.901 0.229 122.409 0.377 123.78 0.945 M 113.408 25.972 L 101.895 37.5 L 101.895 48.105 L 112.5 48.105 L 124.02 36.592 L 120.908 36.592 C 118.918 36.592 117.011 35.802 115.604 34.396 C 114.198 32.989 113.408 31.082 113.408 29.092 Z" fill="rgb(255,242,172)"></path></svg>